<?xml version="1.0" encoding="UTF-8" standalone="no"?>
<!-- Generator: Adobe Illustrator 18.0.0, SVG Export Plug-In . SVG Version: 6.00 Build 0)  -->

<svg
   xmlns:dc="http://purl.org/dc/elements/1.1/"
   xmlns:cc="http://creativecommons.org/ns#"
   xmlns:rdf="http://www.w3.org/1999/02/22-rdf-syntax-ns#"
   xmlns:svg="http://www.w3.org/2000/svg"
   xmlns="http://www.w3.org/2000/svg"
   xmlns:sodipodi="http://sodipodi.sourceforge.net/DTD/sodipodi-0.dtd"
   xmlns:inkscape="http://www.inkscape.org/namespaces/inkscape"
   id="logo"
   viewBox="0 0 165 27"
   width="100%"
   height="24px"
   version="1.1"
   sodipodi:docname="logo.svg"
   inkscape:version="0.92.3 (2405546, 2018-03-11)">
  <metadata
     id="metadata13">
    <rdf:RDF>
      <cc:Work
         rdf:about="">
        <dc:format>image/svg+xml</dc:format>
        <dc:type
           rdf:resource="http://purl.org/dc/dcmitype/StillImage" />
        <dc:title></dc:title>
      </cc:Work>
    </rdf:RDF>
  </metadata>
  <defs
     id="defs11" />
  <sodipodi:namedview
     pagecolor="#ffffff"
     bordercolor="#666666"
     borderopacity="1"
     objecttolerance="10"
     gridtolerance="10"
     guidetolerance="10"
     inkscape:pageopacity="0"
     inkscape:pageshadow="2"
     inkscape:window-width="1795"
     inkscape:window-height="1444"
     id="namedview9"
     showgrid="false"
     inkscape:zoom="8.2181818"
     inkscape:cx="94.615272"
     inkscape:cy="20.66837"
     inkscape:window-x="577"
     inkscape:window-y="303"
     inkscape:window-maximized="0"
     inkscape:current-layer="logo" />
  <path
     fill="currentColor"
     stroke="white"
     class="st1"
     d="M160.3 0v26"
     id="path2" />
  <g
     id="g6"
     transform="translate(26.5)"
     style="fill:#210000;fill-opacity:1">
    <path
       class="st2"
       d="m 41.3,23.9 c 1.2,1.5 3.3,2.3 5.9,2.3 h 1.3 c 5.4,0 9.3,-1.4 9.3,-7.6 V 14.8 C 57.8,9.1 55.3,7 48.7,7 h -2 C 43.8,7 42.2,8 41.5,9 H 41.4 V 0 h -4 v 25.6 h 4 v -1.7 z m 0,-9.2 c 0,-4.3 2.7,-4.4 6.4,-4.4 h 0.4 c 3.6,0 5.6,0.6 5.6,4.8 V 18 c 0,3.5 -0.9,5 -5.7,5 h -0.9 c -4.6,0 -5.8,-1.3 -5.8,-4.7 z m 65.4,-7.1 h -5.4 V 5.9 c 0,-1.6 1,-2.8 3.2,-2.8 h 4 V 0 h -5.4 C 99.9,0 97.2,1.7 97.2,5.9 V 7.5 H 95 v 3.2 h 2.2 v 15.4 h 4 V 10.8 h 5.4 V 7.6 Z M 83.3,20.3 c 0,4.3 2.7,5.9 6,5.9 h 5 V 23 h -4 c -2.2,0 -2.9,-1.1 -2.9,-2.7 v -9.5 h 5.4 V 7.6 H 87.4 V 0 h -4 v 7.6 h -2.2 v 3.2 h 2.2 z M 129.8,0 h 4 v 4.1 h -4 z m 0,7.1 h 4 v 19.1 h -4 z M 68.2,26.2 h 3.6 c 4.9,0 7.1,-1.6 7.7,-4.3 l -3.6,-1.1 c -0.6,1.7 -2,2.1 -5.2,2.1 h -0.9 c -5.2,0 -6,-0.7 -6,-4.7 h 16 v -3.5 c 0,-6.4 -3.3,-7.6 -8.6,-7.6 h -2 c -4.2,0 -9.3,0.7 -9.3,7.2 v 4.5 c 0,6.4 4.4,7.4 8.3,7.4 z M 63.8,14.4 c 0,-3.7 1.7,-4 5.9,-4 h 0.8 c 4.7,0 5.3,1.2 5.3,3.6 v 1 h -12 z m 53.4,-7.3 h -1.5 c -5.5,0 -7.8,1.7 -8,4.2 l 3.8,1.3 c 0.2,-1.7 2.2,-2.2 5.2,-2.2 4.5,0 5.5,0.3 5.5,3.5 v 1.8 h -0.1 c -1,-1.3 -2.4,-1.7 -5.9,-1.7 h -1.6 c -5.2,0 -8.2,1.3 -8.2,5.4 v 1.2 c 0,3.4 1.3,5.8 6.7,5.8 h 3.9 c 3.9,0 4.3,-0.6 5.1,-1.8 h 0.1 v 1.7 h 4 V 13.9 c 0,-5.3 -3.5,-6.8 -9,-6.8 z m 5,13.4 c 0,1.8 -1.2,2.5 -6,2.5 h -1.1 c -4.1,0 -4.6,-0.8 -4.6,-2.3 v -1 c 0,-1.8 1,-2.5 4.4,-2.5 h 1.8 c 3.1,0 5.5,0.6 5.5,2.6 z m 24,-13.4 c -1.8,0 -3.6,0.7 -4.8,2.5 h -0.1 V 7.1 h -3.8 v 19.1 h 4 V 14.7 c 0,-2.3 1.3,-4.4 4.5,-4.4 2.2,0 3.3,0.6 3.6,1.2 l 2.5,-1.7 C 151.4,8.2 149.7,7.1 146.2,7.1 Z M 29.8,0.1 H 19.4 V 5.3 H 13.8 L 24.6,17.9 35.4,5.3 H 29.8 Z M 0,20.8 h 5.6 v 5.3 H 16 v -5.3 h 5.6 L 10.8,8.2 Z"
       id="path4"
       inkscape:connector-curvature="0"
       style="fill:#210000;stroke:#ffffff;fill-opacity:1" />
  </g>
</svg>
