<?xml version="1.0" encoding="iso-8859-1"?>
<!-- Generator: Adobe Illustrator 18.0.0, SVG Export Plug-In . SVG Version: 6.00 Build 0)  -->
<!DOCTYPE svg PUBLIC "-//W3C//DTD SVG 1.1//EN" "http://www.w3.org/Graphics/SVG/1.1/DTD/svg11.dtd">
<svg id="logo" viewBox="0 0 165 27" width="100%" height="24px" xmlns="http://www.w3.org/2000/svg" xmlns:xlink="http://www.w3.org/1999/xlink" >
    <path fill="currentColor" stroke="white" class="st1" d="M160.3 0v26"></path>
    <g fill="currentColor">
        <path stroke="white" fill="white" class="st2" d="M41.3 23.9c1.2 1.5 3.3 2.3 5.9 2.3h1.3c5.4 0 9.3-1.4 9.3-7.6v-3.8c0-5.7-2.5-7.8-9.1-7.8h-2c-2.9 0-4.5 1-5.2 2h-.1V0h-4v25.6h4v-1.7zm0-9.2c0-4.3 2.7-4.4 6.4-4.4h.4c3.6 0 5.6.6 5.6 4.8V18c0 3.5-.9 5-5.7 5h-.9c-4.6 0-5.8-1.3-5.8-4.7v-3.6zM106.7 7.6h-5.4V5.9c0-1.6 1-2.8 3.2-2.8h4V0h-5.4c-3.2 0-5.9 1.7-5.9 5.9v1.6H95v3.2h2.2v15.4h4V10.8h5.4V7.6zM83.3 20.3c0 4.3 2.7 5.9 6 5.9h5V23h-4c-2.2 0-2.9-1.1-2.9-2.7v-9.5h5.4V7.6h-5.4V0h-4v7.6h-2.2v3.2h2.2l-.1 9.5zM129.8 0h4v4.1h-4zM129.8 7.1h4v19.1h-4zM68.2 26.2h3.6c4.9 0 7.1-1.6 7.7-4.3l-3.6-1.1c-.6 1.7-2 2.1-5.2 2.1h-.9c-5.2 0-6-.7-6-4.7h16v-3.5c0-6.4-3.3-7.6-8.6-7.6h-2c-4.2 0-9.3.7-9.3 7.2v4.5c0 6.4 4.4 7.4 8.3 7.4zm-4.4-11.8c0-3.7 1.7-4 5.9-4h.8c4.7 0 5.3 1.2 5.3 3.6v1h-12v-.6zM117.2 7.1h-1.5c-5.5 0-7.8 1.7-8 4.2l3.8 1.3c.2-1.7 2.2-2.2 5.2-2.2 4.5 0 5.5.3 5.5 3.5v1.8h-.1c-1-1.3-2.4-1.7-5.9-1.7h-1.6c-5.2 0-8.2 1.3-8.2 5.4v1.2c0 3.4 1.3 5.8 6.7 5.8h3.9c3.9 0 4.3-.6 5.1-1.8h.1v1.7h4V13.9c0-5.3-3.5-6.8-9-6.8zm5 13.4c0 1.8-1.2 2.5-6 2.5h-1.1c-4.1 0-4.6-.8-4.6-2.3v-1c0-1.8 1-2.5 4.4-2.5h1.8c3.1 0 5.5.6 5.5 2.6v.7zM146.2 7.1c-1.8 0-3.6.7-4.8 2.5h-.1V7.1h-3.8v19.1h4V14.7c0-2.3 1.3-4.4 4.5-4.4 2.2 0 3.3.6 3.6 1.2l2.5-1.7c-.7-1.6-2.4-2.7-5.9-2.7zM29.8.1H19.4v5.2h-5.6l10.8 12.6L35.4 5.3h-5.6zM0 20.8h5.6v5.3H16v-5.3h5.6L10.8 8.2z"></path>
    </g>
</svg>
